<svg xmlns="http://www.w3.org/2000/svg" viewBox="0 0 64 64" role="img" aria-label="Karan Mahajan">
  <defs>
    <linearGradient id="sky" x1="12" y1="4" x2="48" y2="60" gradientUnits="userSpaceOnUse">
      <stop offset="0" stop-color="#ffd48a"/>
      <stop offset="0.38" stop-color="#f38b66"/>
      <stop offset="0.72" stop-color="#486f8c"/>
      <stop offset="1" stop-color="#172635"/>
    </linearGradient>
    <linearGradient id="land" x1="8" y1="40" x2="56" y2="63" gradientUnits="userSpaceOnUse">
      <stop offset="0" stop-color="#6f8f3f"/>
      <stop offset="0.52" stop-color="#334f34"/>
      <stop offset="1" stop-color="#162d2f"/>
    </linearGradient>
    <radialGradient id="sun" cx="42" cy="21" r="18" gradientUnits="userSpaceOnUse">
      <stop offset="0" stop-color="#fff6c7"/>
      <stop offset="0.45" stop-color="#ffd983" stop-opacity="0.62"/>
      <stop offset="1" stop-color="#ffd983" stop-opacity="0"/>
    </radialGradient>
    <linearGradient id="water" x1="11" y1="43" x2="53" y2="53" gradientUnits="userSpaceOnUse">
      <stop offset="0" stop-color="#77d5cf" stop-opacity="0.85"/>
      <stop offset="1" stop-color="#2e7b9a" stop-opacity="0.92"/>
    </linearGradient>
    <filter id="softShadow" x="-20%" y="-20%" width="140%" height="150%">
      <feDropShadow dx="0" dy="2" stdDeviation="2.5" flood-color="#07131d" flood-opacity="0.38"/>
    </filter>
  </defs>

  <rect width="64" height="64" rx="14" fill="url(#sky)"/>
  <circle cx="42" cy="21" r="18" fill="url(#sun)"/>

  <path d="M0 43 C9 36 18 37 26 42 C34 47 43 39 64 42 L64 64 L0 64 Z" fill="url(#land)"/>
  <path d="M7 49 C17 44 29 46 38 48 C47 50 55 49 64 45 L64 57 C50 60 34 59 20 56 C11 54 5 55 0 58 L0 51 Z" fill="url(#water)" opacity="0.78"/>
  <path d="M49 14 L53 20 L49 26 L45 20 Z" fill="#fff3c4" opacity="0.82"/>
  <path d="M49 16 L51 20 L49 24 L47 20 Z" fill="#253241" opacity="0.52"/>

  <g filter="url(#softShadow)" stroke="#fffaf3" stroke-width="7" stroke-linecap="round" stroke-linejoin="round" fill="none">
    <line x1="20" y1="13" x2="20" y2="50"/>
    <line x1="21" y1="32" x2="42" y2="14"/>
    <line x1="21" y1="32" x2="45" y2="50"/>
  </g>
</svg>
